<svg width="34" height="34" viewBox="0 0 34 34" fill="none" xmlns="http://www.w3.org/2000/svg">
<path d="M17 0.5C13.7366 0.5 10.5465 1.46771 7.83306 3.28075C5.11969 5.0938 3.00484 7.67075 1.75599 10.6858C0.507152 13.7007 0.180392 17.0183 0.817052 20.219C1.4537 23.4197 3.02518 26.3597 5.33275 28.6673C7.64031 30.9748 10.5803 32.5463 13.781 33.183C16.9817 33.8196 20.2993 33.4929 23.3143 32.244C26.3293 30.9951 28.9062 28.8803 30.7192 26.1669C32.5323 23.4535 33.5 20.2634 33.5 17C33.4951 12.6255 31.7551 8.43148 28.6618 5.33822C25.5685 2.24494 21.3745 0.504965 17 0.5ZM30.7385 23H26.0975C26.4779 21.2746 26.6892 19.5163 26.7283 17.75H31.9618C31.8771 19.5599 31.4626 21.339 30.7385 23ZM2.03825 17.75H7.27176C7.31084 19.5163 7.52211 21.2746 7.90251 23H3.2615C2.53748 21.339 2.12292 19.5599 2.03825 17.75ZM3.2615 11H7.90251C7.52211 12.7254 7.31084 14.4837 7.27176 16.25H2.03825C2.12292 14.4401 2.53748 12.661 3.2615 11ZM17.75 9.5V2.069C20.4793 2.519 22.823 5.396 24.134 9.5H17.75ZM24.5563 11C24.9628 12.7218 25.1891 14.4813 25.2313 16.25H17.75V11H24.5563ZM16.25 2.069V9.5H9.86601C11.177 5.396 13.5208 2.519 16.25 2.069ZM16.25 11V16.25H8.77101C8.81316 14.4813 9.03944 12.7218 9.44601 11H16.25ZM8.77101 17.75H16.25V23H9.44376C9.03794 21.2781 8.81241 19.5186 8.77101 17.75ZM16.25 24.5V31.931C13.5208 31.481 11.177 28.604 9.86601 24.5H16.25ZM17.75 31.931V24.5H24.134C22.823 28.604 20.4793 31.481 17.75 31.931ZM17.75 23V17.75H25.229C25.1869 19.5187 24.9606 21.2782 24.554 23H17.75ZM26.7283 16.25C26.6892 14.4837 26.4779 12.7254 26.0975 11H30.7385C31.4626 12.661 31.8771 14.4401 31.9618 16.25H26.7283ZM29.9705 9.5H25.7098C25.0588 7.05612 23.8348 4.80259 22.139 2.92625C25.4362 4.1372 28.2064 6.46254 29.9705 9.5ZM11.861 2.92625C10.1653 4.80259 8.94119 7.05612 8.29026 9.5H4.0295C5.79355 6.46254 8.56379 4.1372 11.861 2.92625ZM4.0295 24.5H8.29026C8.94119 26.9439 10.1653 29.1974 11.861 31.0737C8.56379 29.8628 5.79355 27.5374 4.0295 24.5ZM22.139 31.0737C23.8348 29.1974 25.0588 26.9439 25.7098 24.5H29.9705C28.2064 27.5374 25.4362 29.8628 22.139 31.0737Z" fill="#8B358C"/>
</svg>
